<svg width="160.000000" height="160.000000" viewBox="0 0 160 160" fill="none" xmlns="http://www.w3.org/2000/svg" xmlns:xlink="http://www.w3.org/1999/xlink">
	<desc>
			Created with Pixso.
	</desc>
	<defs/>
	<rect id="Rectangle" x="55.172424" width="5.517241" height="5.517241" fill="#FFFFFF" fill-opacity="1.000000"/>
	<rect id="Rectangle" x="82.758606" width="5.517241" height="5.517241" fill="#FFFFFF" fill-opacity="1.000000"/>
	<rect id="Rectangle" x="88.275879" width="5.517241" height="5.517241" fill="#FFFFFF" fill-opacity="1.000000"/>
	<rect id="Rectangle" x="99.310364" width="5.517241" height="5.517241" fill="#FFFFFF" fill-opacity="1.000000"/>
	<rect id="Rectangle" x="44.137939" y="5.517212" width="5.517241" height="5.517241" fill="#FFFFFF" fill-opacity="1.000000"/>
	<rect id="Rectangle" x="49.655151" y="5.517212" width="5.517241" height="5.517241" fill="#FFFFFF" fill-opacity="1.000000"/>
	<rect id="Rectangle" x="60.689636" y="5.517212" width="5.517241" height="5.517241" fill="#FFFFFF" fill-opacity="1.000000"/>
	<rect id="Rectangle" x="66.206909" y="5.517212" width="5.517241" height="5.517241" fill="#FFFFFF" fill-opacity="1.000000"/>
	<rect id="Rectangle" x="71.724121" y="5.517212" width="5.517241" height="5.517241" fill="#FFFFFF" fill-opacity="1.000000"/>
	<rect id="Rectangle" x="77.241394" y="5.517212" width="5.517241" height="5.517241" fill="#FFFFFF" fill-opacity="1.000000"/>
	<rect id="Rectangle" x="88.275879" y="5.517212" width="5.517241" height="5.517241" fill="#FFFFFF" fill-opacity="1.000000"/>
	<rect id="Rectangle" x="93.793091" y="5.517212" width="5.517241" height="5.517241" fill="#FFFFFF" fill-opacity="1.000000"/>
	<rect id="Rectangle" x="110.344849" y="5.517212" width="5.517241" height="5.517241" fill="#FFFFFF" fill-opacity="1.000000"/>
	<rect id="Rectangle" x="44.137939" y="11.034485" width="5.517241" height="5.517241" fill="#FFFFFF" fill-opacity="1.000000"/>
	<rect id="Rectangle" x="49.655151" y="11.034485" width="5.517241" height="5.517241" fill="#FFFFFF" fill-opacity="1.000000"/>
	<rect id="Rectangle" x="55.172424" y="11.034485" width="5.517241" height="5.517241" fill="#FFFFFF" fill-opacity="1.000000"/>
	<rect id="Rectangle" x="66.206909" y="11.034485" width="5.517241" height="5.517241" fill="#FFFFFF" fill-opacity="1.000000"/>
	<rect id="Rectangle" x="71.724121" y="11.034485" width="5.517241" height="5.517241" fill="#FFFFFF" fill-opacity="1.000000"/>
	<rect id="Rectangle" x="82.758606" y="11.034485" width="5.517241" height="5.517241" fill="#FFFFFF" fill-opacity="1.000000"/>
	<rect id="Rectangle" x="99.310364" y="11.034485" width="5.517241" height="5.517241" fill="#FFFFFF" fill-opacity="1.000000"/>
	<rect id="Rectangle" x="110.344849" y="11.034485" width="5.517241" height="5.517241" fill="#FFFFFF" fill-opacity="1.000000"/>
	<rect id="Rectangle" x="44.137939" y="16.551758" width="5.517241" height="5.517241" fill="#FFFFFF" fill-opacity="1.000000"/>
	<rect id="Rectangle" x="49.655151" y="16.551758" width="5.517241" height="5.517241" fill="#FFFFFF" fill-opacity="1.000000"/>
	<rect id="Rectangle" x="60.689636" y="16.551758" width="5.517241" height="5.517241" fill="#FFFFFF" fill-opacity="1.000000"/>
	<rect id="Rectangle" x="88.275879" y="16.551758" width="5.517241" height="5.517241" fill="#FFFFFF" fill-opacity="1.000000"/>
	<rect id="Rectangle" x="93.793091" y="16.551758" width="5.517241" height="5.517241" fill="#FFFFFF" fill-opacity="1.000000"/>
	<rect id="Rectangle" x="110.344849" y="16.551758" width="5.517241" height="5.517241" fill="#FFFFFF" fill-opacity="1.000000"/>
	<rect id="Rectangle" x="49.655151" y="22.068970" width="5.517241" height="5.517241" fill="#FFFFFF" fill-opacity="1.000000"/>
	<rect id="Rectangle" x="82.758606" y="22.068970" width="5.517241" height="5.517241" fill="#FFFFFF" fill-opacity="1.000000"/>
	<rect id="Rectangle" x="88.275879" y="22.068970" width="5.517241" height="5.517241" fill="#FFFFFF" fill-opacity="1.000000"/>
	<rect id="Rectangle" x="104.827576" y="22.068970" width="5.517241" height="5.517241" fill="#FFFFFF" fill-opacity="1.000000"/>
	<rect id="Rectangle" x="110.344849" y="22.068970" width="5.517241" height="5.517241" fill="#FFFFFF" fill-opacity="1.000000"/>
	<rect id="Rectangle" x="49.655151" y="27.586182" width="5.517241" height="5.517241" fill="#FFFFFF" fill-opacity="1.000000"/>
	<rect id="Rectangle" x="66.206909" y="27.586182" width="5.517241" height="5.517241" fill="#FFFFFF" fill-opacity="1.000000"/>
	<rect id="Rectangle" x="82.758606" y="27.586182" width="5.517241" height="5.517241" fill="#FFFFFF" fill-opacity="1.000000"/>
	<rect id="Rectangle" x="110.344849" y="27.586182" width="5.517241" height="5.517241" fill="#FFFFFF" fill-opacity="1.000000"/>
	<rect id="Rectangle" x="44.137939" y="33.103455" width="5.517241" height="5.517241" fill="#FFFFFF" fill-opacity="1.000000"/>
	<rect id="Rectangle" x="55.172424" y="33.103455" width="5.517241" height="5.517241" fill="#FFFFFF" fill-opacity="1.000000"/>
	<rect id="Rectangle" x="66.206909" y="33.103455" width="5.517241" height="5.517241" fill="#FFFFFF" fill-opacity="1.000000"/>
	<rect id="Rectangle" x="77.241394" y="33.103455" width="5.517241" height="5.517241" fill="#FFFFFF" fill-opacity="1.000000"/>
	<rect id="Rectangle" x="88.275879" y="33.103455" width="5.517241" height="5.517241" fill="#FFFFFF" fill-opacity="1.000000"/>
	<rect id="Rectangle" x="99.310364" y="33.103455" width="5.517241" height="5.517241" fill="#FFFFFF" fill-opacity="1.000000"/>
	<rect id="Rectangle" x="110.344849" y="33.103455" width="5.517241" height="5.517241" fill="#FFFFFF" fill-opacity="1.000000"/>
	<rect id="Rectangle" x="44.137939" y="38.620728" width="5.517241" height="5.517241" fill="#FFFFFF" fill-opacity="1.000000"/>
	<rect id="Rectangle" x="60.689636" y="38.620728" width="5.517241" height="5.517241" fill="#FFFFFF" fill-opacity="1.000000"/>
	<rect id="Rectangle" x="77.241394" y="38.620728" width="5.517241" height="5.517241" fill="#FFFFFF" fill-opacity="1.000000"/>
	<rect id="Rectangle" x="82.758606" y="38.620728" width="5.517241" height="5.517241" fill="#FFFFFF" fill-opacity="1.000000"/>
	<rect id="Rectangle" x="88.275879" y="38.620728" width="5.517241" height="5.517241" fill="#FFFFFF" fill-opacity="1.000000"/>
	<rect id="Rectangle" x="99.310364" y="38.620728" width="5.517241" height="5.517241" fill="#FFFFFF" fill-opacity="1.000000"/>
	<rect id="Rectangle" x="110.344849" y="38.620728" width="5.517241" height="5.517241" fill="#FFFFFF" fill-opacity="1.000000"/>
	<rect id="Rectangle" y="44.137939" width="5.517241" height="5.517241" fill="#FFFFFF" fill-opacity="1.000000"/>
	<rect id="Rectangle" x="33.103455" y="44.137939" width="5.517241" height="5.517241" fill="#FFFFFF" fill-opacity="1.000000"/>
	<rect id="Rectangle" x="44.137939" y="44.137939" width="5.517241" height="5.517241" fill="#FFFFFF" fill-opacity="1.000000"/>
	<rect id="Rectangle" x="55.172424" y="44.137939" width="5.517241" height="5.517241" fill="#FFFFFF" fill-opacity="1.000000"/>
	<rect id="Rectangle" x="88.275879" y="44.137939" width="5.517241" height="5.517241" fill="#FFFFFF" fill-opacity="1.000000"/>
	<rect id="Rectangle" x="93.793091" y="44.137939" width="5.517241" height="5.517241" fill="#FFFFFF" fill-opacity="1.000000"/>
	<rect id="Rectangle" x="104.827576" y="44.137939" width="5.517241" height="5.517241" fill="#FFFFFF" fill-opacity="1.000000"/>
	<rect id="Rectangle" x="115.862061" y="44.137939" width="5.517241" height="5.517241" fill="#FFFFFF" fill-opacity="1.000000"/>
	<rect id="Rectangle" x="121.379272" y="44.137939" width="5.517241" height="5.517241" fill="#FFFFFF" fill-opacity="1.000000"/>
	<rect id="Rectangle" x="137.931030" y="44.137939" width="5.517241" height="5.517241" fill="#FFFFFF" fill-opacity="1.000000"/>
	<rect id="Rectangle" x="143.448242" y="44.137939" width="5.517241" height="5.517241" fill="#FFFFFF" fill-opacity="1.000000"/>
	<rect id="Rectangle" x="148.965515" y="44.137939" width="5.517241" height="5.517241" fill="#FFFFFF" fill-opacity="1.000000"/>
	<rect id="Rectangle" y="49.655151" width="5.517241" height="5.517241" fill="#FFFFFF" fill-opacity="1.000000"/>
	<rect id="Rectangle" x="11.034485" y="49.655151" width="5.517241" height="5.517241" fill="#FFFFFF" fill-opacity="1.000000"/>
	<rect id="Rectangle" x="27.586182" y="49.655151" width="5.517241" height="5.517241" fill="#FFFFFF" fill-opacity="1.000000"/>
	<rect id="Rectangle" x="71.724121" y="49.655151" width="5.517241" height="5.517241" fill="#FFFFFF" fill-opacity="1.000000"/>
	<rect id="Rectangle" x="88.275879" y="49.655151" width="5.517241" height="5.517241" fill="#FFFFFF" fill-opacity="1.000000"/>
	<rect id="Rectangle" x="93.793091" y="49.655151" width="5.517241" height="5.517241" fill="#FFFFFF" fill-opacity="1.000000"/>
	<rect id="Rectangle" x="99.310364" y="49.655151" width="5.517241" height="5.517241" fill="#FFFFFF" fill-opacity="1.000000"/>
	<rect id="Rectangle" x="104.827576" y="49.655151" width="5.517241" height="5.517241" fill="#FFFFFF" fill-opacity="1.000000"/>
	<rect id="Rectangle" x="126.896545" y="49.655151" width="5.517241" height="5.517241" fill="#FFFFFF" fill-opacity="1.000000"/>
	<rect id="Rectangle" x="132.413818" y="49.655151" width="5.517241" height="5.517241" fill="#FFFFFF" fill-opacity="1.000000"/>
	<rect id="Rectangle" x="143.448242" y="49.655151" width="5.517241" height="5.517241" fill="#FFFFFF" fill-opacity="1.000000"/>
	<rect id="Rectangle" x="148.965515" y="49.655151" width="5.517241" height="5.517241" fill="#FFFFFF" fill-opacity="1.000000"/>
	<rect id="Rectangle" x="5.517212" y="55.172424" width="5.517241" height="5.517241" fill="#FFFFFF" fill-opacity="1.000000"/>
	<rect id="Rectangle" x="11.034485" y="55.172424" width="5.517241" height="5.517241" fill="#FFFFFF" fill-opacity="1.000000"/>
	<rect id="Rectangle" x="16.551758" y="55.172424" width="5.517241" height="5.517241" fill="#FFFFFF" fill-opacity="1.000000"/>
	<rect id="Rectangle" x="22.068970" y="55.172424" width="5.517241" height="5.517241" fill="#FFFFFF" fill-opacity="1.000000"/>
	<rect id="Rectangle" x="33.103455" y="55.172424" width="5.517241" height="5.517241" fill="#FFFFFF" fill-opacity="1.000000"/>
	<rect id="Rectangle" x="38.620667" y="55.172424" width="5.517241" height="5.517241" fill="#FFFFFF" fill-opacity="1.000000"/>
	<rect id="Rectangle" x="44.137939" y="55.172424" width="5.517241" height="5.517241" fill="#FFFFFF" fill-opacity="1.000000"/>
	<rect id="Rectangle" x="49.655151" y="55.172424" width="5.517241" height="5.517241" fill="#FFFFFF" fill-opacity="1.000000"/>
	<rect id="Rectangle" x="66.206909" y="55.172424" width="5.517241" height="5.517241" fill="#FFFFFF" fill-opacity="1.000000"/>
	<rect id="Rectangle" x="71.724121" y="55.172424" width="5.517241" height="5.517241" fill="#FFFFFF" fill-opacity="1.000000"/>
	<rect id="Rectangle" x="77.241394" y="55.172424" width="5.517241" height="5.517241" fill="#FFFFFF" fill-opacity="1.000000"/>
	<rect id="Rectangle" x="82.758606" y="55.172424" width="5.517241" height="5.517241" fill="#FFFFFF" fill-opacity="1.000000"/>
	<rect id="Rectangle" x="88.275879" y="55.172424" width="5.517241" height="5.517241" fill="#FFFFFF" fill-opacity="1.000000"/>
	<rect id="Rectangle" x="93.793091" y="55.172424" width="5.517241" height="5.517241" fill="#FFFFFF" fill-opacity="1.000000"/>
	<rect id="Rectangle" y="60.689636" width="5.517241" height="5.517241" fill="#FFFFFF" fill-opacity="1.000000"/>
	<rect id="Rectangle" x="11.034485" y="60.689636" width="5.517241" height="5.517241" fill="#FFFFFF" fill-opacity="1.000000"/>
	<rect id="Rectangle" x="27.586182" y="60.689636" width="5.517241" height="5.517241" fill="#FFFFFF" fill-opacity="1.000000"/>
	<rect id="Rectangle" x="38.620667" y="60.689636" width="5.517241" height="5.517241" fill="#FFFFFF" fill-opacity="1.000000"/>
	<rect id="Rectangle" x="44.137939" y="60.689636" width="5.517241" height="5.517241" fill="#FFFFFF" fill-opacity="1.000000"/>
	<rect id="Rectangle" x="49.655151" y="60.689636" width="5.517241" height="5.517241" fill="#FFFFFF" fill-opacity="1.000000"/>
	<rect id="Rectangle" x="55.172424" y="60.689636" width="5.517241" height="5.517241" fill="#FFFFFF" fill-opacity="1.000000"/>
	<rect id="Rectangle" x="66.206909" y="60.689636" width="5.517241" height="5.517241" fill="#FFFFFF" fill-opacity="1.000000"/>
	<rect id="Rectangle" x="71.724121" y="60.689636" width="5.517241" height="5.517241" fill="#FFFFFF" fill-opacity="1.000000"/>
	<rect id="Rectangle" x="110.344849" y="60.689636" width="5.517241" height="5.517241" fill="#FFFFFF" fill-opacity="1.000000"/>
	<rect id="Rectangle" x="121.379272" y="60.689636" width="5.517241" height="5.517241" fill="#FFFFFF" fill-opacity="1.000000"/>
	<rect id="Rectangle" x="126.896545" y="60.689636" width="5.517241" height="5.517241" fill="#FFFFFF" fill-opacity="1.000000"/>
	<rect id="Rectangle" x="137.931030" y="60.689636" width="5.517241" height="5.517241" fill="#FFFFFF" fill-opacity="1.000000"/>
	<rect id="Rectangle" x="5.517212" y="66.206909" width="5.517241" height="5.517241" fill="#FFFFFF" fill-opacity="1.000000"/>
	<rect id="Rectangle" x="27.586182" y="66.206909" width="5.517241" height="5.517241" fill="#FFFFFF" fill-opacity="1.000000"/>
	<rect id="Rectangle" x="33.103455" y="66.206909" width="5.517241" height="5.517241" fill="#FFFFFF" fill-opacity="1.000000"/>
	<rect id="Rectangle" x="44.137939" y="66.206909" width="5.517241" height="5.517241" fill="#FFFFFF" fill-opacity="1.000000"/>
	<rect id="Rectangle" x="55.172424" y="66.206909" width="5.517241" height="5.517241" fill="#FFFFFF" fill-opacity="1.000000"/>
	<rect id="Rectangle" x="71.724121" y="66.206909" width="5.517241" height="5.517241" fill="#FFFFFF" fill-opacity="1.000000"/>
	<rect id="Rectangle" x="82.758606" y="66.206909" width="5.517241" height="5.517241" fill="#FFFFFF" fill-opacity="1.000000"/>
	<rect id="Rectangle" x="88.275879" y="66.206909" width="5.517241" height="5.517241" fill="#FFFFFF" fill-opacity="1.000000"/>
	<rect id="Rectangle" x="104.827576" y="66.206909" width="5.517241" height="5.517241" fill="#FFFFFF" fill-opacity="1.000000"/>
	<rect id="Rectangle" x="110.344849" y="66.206909" width="5.517241" height="5.517241" fill="#FFFFFF" fill-opacity="1.000000"/>
	<rect id="Rectangle" x="121.379272" y="66.206909" width="5.517241" height="5.517241" fill="#FFFFFF" fill-opacity="1.000000"/>
	<rect id="Rectangle" x="126.896545" y="66.206909" width="5.517241" height="5.517241" fill="#FFFFFF" fill-opacity="1.000000"/>
	<rect id="Rectangle" x="154.482788" y="66.206909" width="5.517241" height="5.517241" fill="#FFFFFF" fill-opacity="1.000000"/>
	<rect id="Rectangle" x="11.034485" y="71.724121" width="5.517241" height="5.517241" fill="#FFFFFF" fill-opacity="1.000000"/>
	<rect id="Rectangle" x="22.068970" y="71.724121" width="5.517241" height="5.517241" fill="#FFFFFF" fill-opacity="1.000000"/>
	<rect id="Rectangle" x="38.620667" y="71.724121" width="5.517241" height="5.517241" fill="#FFFFFF" fill-opacity="1.000000"/>
	<rect id="Rectangle" x="49.655151" y="71.724121" width="5.517241" height="5.517241" fill="#FFFFFF" fill-opacity="1.000000"/>
	<rect id="Rectangle" x="55.172424" y="71.724121" width="5.517241" height="5.517241" fill="#FFFFFF" fill-opacity="1.000000"/>
	<rect id="Rectangle" x="88.275879" y="71.724121" width="5.517241" height="5.517241" fill="#FFFFFF" fill-opacity="1.000000"/>
	<rect id="Rectangle" x="104.827576" y="71.724121" width="5.517241" height="5.517241" fill="#FFFFFF" fill-opacity="1.000000"/>
	<rect id="Rectangle" x="110.344849" y="71.724121" width="5.517241" height="5.517241" fill="#FFFFFF" fill-opacity="1.000000"/>
	<rect id="Rectangle" x="115.862061" y="71.724121" width="5.517241" height="5.517241" fill="#FFFFFF" fill-opacity="1.000000"/>
	<rect id="Rectangle" x="121.379272" y="71.724121" width="5.517241" height="5.517241" fill="#FFFFFF" fill-opacity="1.000000"/>
	<rect id="Rectangle" x="132.413818" y="71.724121" width="5.517241" height="5.517241" fill="#FFFFFF" fill-opacity="1.000000"/>
	<rect id="Rectangle" x="148.965515" y="71.724121" width="5.517241" height="5.517241" fill="#FFFFFF" fill-opacity="1.000000"/>
	<rect id="Rectangle" x="154.482788" y="71.724121" width="5.517241" height="5.517241" fill="#FFFFFF" fill-opacity="1.000000"/>
	<rect id="Rectangle" y="77.241394" width="5.517241" height="5.517241" fill="#FFFFFF" fill-opacity="1.000000"/>
	<rect id="Rectangle" x="5.517212" y="77.241394" width="5.517241" height="5.517241" fill="#FFFFFF" fill-opacity="1.000000"/>
	<rect id="Rectangle" x="22.068970" y="77.241394" width="5.517241" height="5.517241" fill="#FFFFFF" fill-opacity="1.000000"/>
	<rect id="Rectangle" x="33.103455" y="77.241394" width="5.517241" height="5.517241" fill="#FFFFFF" fill-opacity="1.000000"/>
	<rect id="Rectangle" x="44.137939" y="77.241394" width="5.517241" height="5.517241" fill="#FFFFFF" fill-opacity="1.000000"/>
	<rect id="Rectangle" x="49.655151" y="77.241394" width="5.517241" height="5.517241" fill="#FFFFFF" fill-opacity="1.000000"/>
	<rect id="Rectangle" x="93.793091" y="77.241394" width="5.517241" height="5.517241" fill="#FFFFFF" fill-opacity="1.000000"/>
	<rect id="Rectangle" x="99.310364" y="77.241394" width="5.517241" height="5.517241" fill="#FFFFFF" fill-opacity="1.000000"/>
	<rect id="Rectangle" x="115.862061" y="77.241394" width="5.517241" height="5.517241" fill="#FFFFFF" fill-opacity="1.000000"/>
	<rect id="Rectangle" x="126.896545" y="77.241394" width="5.517241" height="5.517241" fill="#FFFFFF" fill-opacity="1.000000"/>
	<rect id="Rectangle" x="137.931030" y="77.241394" width="5.517241" height="5.517241" fill="#FFFFFF" fill-opacity="1.000000"/>
	<rect id="Rectangle" x="143.448242" y="77.241394" width="5.517241" height="5.517241" fill="#FFFFFF" fill-opacity="1.000000"/>
	<rect id="Rectangle" x="44.137939" y="82.758606" width="5.517241" height="5.517241" fill="#FFFFFF" fill-opacity="1.000000"/>
	<rect id="Rectangle" x="49.655151" y="82.758606" width="5.517241" height="5.517241" fill="#FFFFFF" fill-opacity="1.000000"/>
	<rect id="Rectangle" x="55.172424" y="82.758606" width="5.517241" height="5.517241" fill="#FFFFFF" fill-opacity="1.000000"/>
	<rect id="Rectangle" x="82.758606" y="82.758606" width="5.517241" height="5.517241" fill="#FFFFFF" fill-opacity="1.000000"/>
	<rect id="Rectangle" x="99.310364" y="82.758606" width="5.517241" height="5.517241" fill="#FFFFFF" fill-opacity="1.000000"/>
	<rect id="Rectangle" x="104.827576" y="82.758606" width="5.517241" height="5.517241" fill="#FFFFFF" fill-opacity="1.000000"/>
	<rect id="Rectangle" x="126.896545" y="82.758606" width="5.517241" height="5.517241" fill="#FFFFFF" fill-opacity="1.000000"/>
	<rect id="Rectangle" x="132.413818" y="82.758606" width="5.517241" height="5.517241" fill="#FFFFFF" fill-opacity="1.000000"/>
	<rect id="Rectangle" x="143.448242" y="82.758606" width="5.517241" height="5.517241" fill="#FFFFFF" fill-opacity="1.000000"/>
	<rect id="Rectangle" x="154.482788" y="82.758606" width="5.517241" height="5.517241" fill="#FFFFFF" fill-opacity="1.000000"/>
	<rect id="Rectangle" y="88.275879" width="5.517241" height="5.517241" fill="#FFFFFF" fill-opacity="1.000000"/>
	<rect id="Rectangle" x="22.068970" y="88.275879" width="5.517241" height="5.517241" fill="#FFFFFF" fill-opacity="1.000000"/>
	<rect id="Rectangle" x="27.586182" y="88.275879" width="5.517241" height="5.517241" fill="#FFFFFF" fill-opacity="1.000000"/>
	<rect id="Rectangle" x="33.103455" y="88.275879" width="5.517241" height="5.517241" fill="#FFFFFF" fill-opacity="1.000000"/>
	<rect id="Rectangle" x="60.689636" y="88.275879" width="5.517241" height="5.517241" fill="#FFFFFF" fill-opacity="1.000000"/>
	<rect id="Rectangle" x="88.275879" y="88.275879" width="5.517241" height="5.517241" fill="#FFFFFF" fill-opacity="1.000000"/>
	<rect id="Rectangle" x="93.793091" y="88.275879" width="5.517241" height="5.517241" fill="#FFFFFF" fill-opacity="1.000000"/>
	<rect id="Rectangle" x="99.310364" y="88.275879" width="5.517241" height="5.517241" fill="#FFFFFF" fill-opacity="1.000000"/>
	<rect id="Rectangle" x="104.827576" y="88.275879" width="5.517241" height="5.517241" fill="#FFFFFF" fill-opacity="1.000000"/>
	<rect id="Rectangle" x="126.896545" y="88.275879" width="5.517241" height="5.517241" fill="#FFFFFF" fill-opacity="1.000000"/>
	<rect id="Rectangle" x="137.931030" y="88.275879" width="5.517241" height="5.517241" fill="#FFFFFF" fill-opacity="1.000000"/>
	<rect id="Rectangle" x="143.448242" y="88.275879" width="5.517241" height="5.517241" fill="#FFFFFF" fill-opacity="1.000000"/>
	<rect id="Rectangle" y="93.793091" width="5.517241" height="5.517241" fill="#FFFFFF" fill-opacity="1.000000"/>
	<rect id="Rectangle" x="38.620667" y="93.793091" width="5.517241" height="5.517241" fill="#FFFFFF" fill-opacity="1.000000"/>
	<rect id="Rectangle" x="44.137939" y="93.793091" width="5.517241" height="5.517241" fill="#FFFFFF" fill-opacity="1.000000"/>
	<rect id="Rectangle" x="49.655151" y="93.793091" width="5.517241" height="5.517241" fill="#FFFFFF" fill-opacity="1.000000"/>
	<rect id="Rectangle" x="60.689636" y="93.793091" width="5.517241" height="5.517241" fill="#FFFFFF" fill-opacity="1.000000"/>
	<rect id="Rectangle" x="71.724121" y="93.793091" width="5.517241" height="5.517241" fill="#FFFFFF" fill-opacity="1.000000"/>
	<rect id="Rectangle" x="77.241394" y="93.793091" width="5.517241" height="5.517241" fill="#FFFFFF" fill-opacity="1.000000"/>
	<rect id="Rectangle" x="93.793091" y="93.793091" width="5.517241" height="5.517241" fill="#FFFFFF" fill-opacity="1.000000"/>
	<rect id="Rectangle" x="99.310364" y="93.793091" width="5.517241" height="5.517241" fill="#FFFFFF" fill-opacity="1.000000"/>
	<rect id="Rectangle" x="104.827576" y="93.793091" width="5.517241" height="5.517241" fill="#FFFFFF" fill-opacity="1.000000"/>
	<rect id="Rectangle" x="110.344849" y="93.793091" width="5.517241" height="5.517241" fill="#FFFFFF" fill-opacity="1.000000"/>
	<rect id="Rectangle" x="121.379272" y="93.793091" width="5.517241" height="5.517241" fill="#FFFFFF" fill-opacity="1.000000"/>
	<rect id="Rectangle" x="126.896545" y="93.793091" width="5.517241" height="5.517241" fill="#FFFFFF" fill-opacity="1.000000"/>
	<rect id="Rectangle" x="132.413818" y="93.793091" width="5.517241" height="5.517241" fill="#FFFFFF" fill-opacity="1.000000"/>
	<rect id="Rectangle" x="143.448242" y="93.793091" width="5.517241" height="5.517241" fill="#FFFFFF" fill-opacity="1.000000"/>
	<rect id="Rectangle" x="148.965515" y="93.793091" width="5.517241" height="5.517241" fill="#FFFFFF" fill-opacity="1.000000"/>
	<rect id="Rectangle" x="154.482788" y="93.793091" width="5.517241" height="5.517241" fill="#FFFFFF" fill-opacity="1.000000"/>
	<rect id="Rectangle" y="99.310364" width="5.517241" height="5.517241" fill="#FFFFFF" fill-opacity="1.000000"/>
	<rect id="Rectangle" x="5.517212" y="99.310364" width="5.517241" height="5.517241" fill="#FFFFFF" fill-opacity="1.000000"/>
	<rect id="Rectangle" x="16.551758" y="99.310364" width="5.517241" height="5.517241" fill="#FFFFFF" fill-opacity="1.000000"/>
	<rect id="Rectangle" x="22.068970" y="99.310364" width="5.517241" height="5.517241" fill="#FFFFFF" fill-opacity="1.000000"/>
	<rect id="Rectangle" x="27.586182" y="99.310364" width="5.517241" height="5.517241" fill="#FFFFFF" fill-opacity="1.000000"/>
	<rect id="Rectangle" x="33.103455" y="99.310364" width="5.517241" height="5.517241" fill="#FFFFFF" fill-opacity="1.000000"/>
	<rect id="Rectangle" x="44.137939" y="99.310364" width="5.517241" height="5.517241" fill="#FFFFFF" fill-opacity="1.000000"/>
	<rect id="Rectangle" x="49.655151" y="99.310364" width="5.517241" height="5.517241" fill="#FFFFFF" fill-opacity="1.000000"/>
	<rect id="Rectangle" x="60.689636" y="99.310364" width="5.517241" height="5.517241" fill="#FFFFFF" fill-opacity="1.000000"/>
	<rect id="Rectangle" x="82.758606" y="99.310364" width="5.517241" height="5.517241" fill="#FFFFFF" fill-opacity="1.000000"/>
	<rect id="Rectangle" x="104.827576" y="99.310364" width="5.517241" height="5.517241" fill="#FFFFFF" fill-opacity="1.000000"/>
	<rect id="Rectangle" x="137.931030" y="99.310364" width="5.517241" height="5.517241" fill="#FFFFFF" fill-opacity="1.000000"/>
	<rect id="Rectangle" x="154.482788" y="99.310364" width="5.517241" height="5.517241" fill="#FFFFFF" fill-opacity="1.000000"/>
	<rect id="Rectangle" y="104.827576" width="5.517241" height="5.517241" fill="#FFFFFF" fill-opacity="1.000000"/>
	<rect id="Rectangle" x="11.034485" y="104.827576" width="5.517241" height="5.517241" fill="#FFFFFF" fill-opacity="1.000000"/>
	<rect id="Rectangle" x="16.551758" y="104.827576" width="5.517241" height="5.517241" fill="#FFFFFF" fill-opacity="1.000000"/>
	<rect id="Rectangle" x="27.586182" y="104.827576" width="5.517241" height="5.517241" fill="#FFFFFF" fill-opacity="1.000000"/>
	<rect id="Rectangle" x="49.655151" y="104.827576" width="5.517241" height="5.517241" fill="#FFFFFF" fill-opacity="1.000000"/>
	<rect id="Rectangle" x="55.172424" y="104.827576" width="5.517241" height="5.517241" fill="#FFFFFF" fill-opacity="1.000000"/>
	<rect id="Rectangle" x="66.206909" y="104.827576" width="5.517241" height="5.517241" fill="#FFFFFF" fill-opacity="1.000000"/>
	<rect id="Rectangle" x="71.724121" y="104.827576" width="5.517241" height="5.517241" fill="#FFFFFF" fill-opacity="1.000000"/>
	<rect id="Rectangle" x="99.310364" y="104.827576" width="5.517241" height="5.517241" fill="#FFFFFF" fill-opacity="1.000000"/>
	<rect id="Rectangle" x="110.344849" y="104.827576" width="5.517241" height="5.517241" fill="#FFFFFF" fill-opacity="1.000000"/>
	<rect id="Rectangle" x="115.862061" y="104.827576" width="5.517241" height="5.517241" fill="#FFFFFF" fill-opacity="1.000000"/>
	<rect id="Rectangle" x="121.379272" y="104.827576" width="5.517241" height="5.517241" fill="#FFFFFF" fill-opacity="1.000000"/>
	<rect id="Rectangle" x="126.896545" y="104.827576" width="5.517241" height="5.517241" fill="#FFFFFF" fill-opacity="1.000000"/>
	<rect id="Rectangle" x="132.413818" y="104.827576" width="5.517241" height="5.517241" fill="#FFFFFF" fill-opacity="1.000000"/>
	<rect id="Rectangle" y="110.344849" width="5.517241" height="5.517241" fill="#FFFFFF" fill-opacity="1.000000"/>
	<rect id="Rectangle" x="22.068970" y="110.344849" width="5.517241" height="5.517241" fill="#FFFFFF" fill-opacity="1.000000"/>
	<rect id="Rectangle" x="33.103455" y="110.344849" width="5.517241" height="5.517241" fill="#FFFFFF" fill-opacity="1.000000"/>
	<rect id="Rectangle" x="38.620667" y="110.344849" width="5.517241" height="5.517241" fill="#FFFFFF" fill-opacity="1.000000"/>
	<rect id="Rectangle" x="49.655151" y="110.344849" width="5.517241" height="5.517241" fill="#FFFFFF" fill-opacity="1.000000"/>
	<rect id="Rectangle" x="60.689636" y="110.344849" width="5.517241" height="5.517241" fill="#FFFFFF" fill-opacity="1.000000"/>
	<rect id="Rectangle" x="77.241394" y="110.344849" width="5.517241" height="5.517241" fill="#FFFFFF" fill-opacity="1.000000"/>
	<rect id="Rectangle" x="82.758606" y="110.344849" width="5.517241" height="5.517241" fill="#FFFFFF" fill-opacity="1.000000"/>
	<rect id="Rectangle" x="93.793091" y="110.344849" width="5.517241" height="5.517241" fill="#FFFFFF" fill-opacity="1.000000"/>
	<rect id="Rectangle" x="110.344849" y="110.344849" width="5.517241" height="5.517241" fill="#FFFFFF" fill-opacity="1.000000"/>
	<rect id="Rectangle" x="115.862061" y="110.344849" width="5.517241" height="5.517241" fill="#FFFFFF" fill-opacity="1.000000"/>
	<rect id="Rectangle" x="121.379272" y="110.344849" width="5.517241" height="5.517241" fill="#FFFFFF" fill-opacity="1.000000"/>
	<rect id="Rectangle" x="126.896545" y="110.344849" width="5.517241" height="5.517241" fill="#FFFFFF" fill-opacity="1.000000"/>
	<rect id="Rectangle" x="132.413818" y="110.344849" width="5.517241" height="5.517241" fill="#FFFFFF" fill-opacity="1.000000"/>
	<rect id="Rectangle" x="143.448242" y="110.344849" width="5.517241" height="5.517241" fill="#FFFFFF" fill-opacity="1.000000"/>
	<rect id="Rectangle" x="148.965515" y="110.344849" width="5.517241" height="5.517241" fill="#FFFFFF" fill-opacity="1.000000"/>
	<rect id="Rectangle" x="154.482788" y="110.344849" width="5.517241" height="5.517241" fill="#FFFFFF" fill-opacity="1.000000"/>
	<rect id="Rectangle" x="44.137939" y="115.862061" width="5.517241" height="5.517241" fill="#FFFFFF" fill-opacity="1.000000"/>
	<rect id="Rectangle" x="49.655151" y="115.862061" width="5.517241" height="5.517241" fill="#FFFFFF" fill-opacity="1.000000"/>
	<rect id="Rectangle" x="55.172424" y="115.862061" width="5.517241" height="5.517241" fill="#FFFFFF" fill-opacity="1.000000"/>
	<rect id="Rectangle" x="77.241394" y="115.862061" width="5.517241" height="5.517241" fill="#FFFFFF" fill-opacity="1.000000"/>
	<rect id="Rectangle" x="93.793091" y="115.862061" width="5.517241" height="5.517241" fill="#FFFFFF" fill-opacity="1.000000"/>
	<rect id="Rectangle" x="99.310364" y="115.862061" width="5.517241" height="5.517241" fill="#FFFFFF" fill-opacity="1.000000"/>
	<rect id="Rectangle" x="110.344849" y="115.862061" width="5.517241" height="5.517241" fill="#FFFFFF" fill-opacity="1.000000"/>
	<rect id="Rectangle" x="132.413818" y="115.862061" width="5.517241" height="5.517241" fill="#FFFFFF" fill-opacity="1.000000"/>
	<rect id="Rectangle" x="137.931030" y="115.862061" width="5.517241" height="5.517241" fill="#FFFFFF" fill-opacity="1.000000"/>
	<rect id="Rectangle" x="66.206909" y="121.379272" width="5.517241" height="5.517241" fill="#FFFFFF" fill-opacity="1.000000"/>
	<rect id="Rectangle" x="99.310364" y="121.379272" width="5.517241" height="5.517241" fill="#FFFFFF" fill-opacity="1.000000"/>
	<rect id="Rectangle" x="104.827576" y="121.379272" width="5.517241" height="5.517241" fill="#FFFFFF" fill-opacity="1.000000"/>
	<rect id="Rectangle" x="110.344849" y="121.379272" width="5.517241" height="5.517241" fill="#FFFFFF" fill-opacity="1.000000"/>
	<rect id="Rectangle" x="121.379272" y="121.379272" width="5.517241" height="5.517241" fill="#FFFFFF" fill-opacity="1.000000"/>
	<rect id="Rectangle" x="132.413818" y="121.379272" width="5.517241" height="5.517241" fill="#FFFFFF" fill-opacity="1.000000"/>
	<rect id="Rectangle" x="137.931030" y="121.379272" width="5.517241" height="5.517241" fill="#FFFFFF" fill-opacity="1.000000"/>
	<rect id="Rectangle" x="143.448242" y="121.379272" width="5.517241" height="5.517241" fill="#FFFFFF" fill-opacity="1.000000"/>
	<rect id="Rectangle" x="55.172424" y="126.896545" width="5.517241" height="5.517241" fill="#FFFFFF" fill-opacity="1.000000"/>
	<rect id="Rectangle" x="60.689636" y="126.896545" width="5.517241" height="5.517241" fill="#FFFFFF" fill-opacity="1.000000"/>
	<rect id="Rectangle" x="77.241394" y="126.896545" width="5.517241" height="5.517241" fill="#FFFFFF" fill-opacity="1.000000"/>
	<rect id="Rectangle" x="82.758606" y="126.896545" width="5.517241" height="5.517241" fill="#FFFFFF" fill-opacity="1.000000"/>
	<rect id="Rectangle" x="88.275879" y="126.896545" width="5.517241" height="5.517241" fill="#FFFFFF" fill-opacity="1.000000"/>
	<rect id="Rectangle" x="104.827576" y="126.896545" width="5.517241" height="5.517241" fill="#FFFFFF" fill-opacity="1.000000"/>
	<rect id="Rectangle" x="110.344849" y="126.896545" width="5.517241" height="5.517241" fill="#FFFFFF" fill-opacity="1.000000"/>
	<rect id="Rectangle" x="132.413818" y="126.896545" width="5.517241" height="5.517241" fill="#FFFFFF" fill-opacity="1.000000"/>
	<rect id="Rectangle" x="154.482788" y="126.896545" width="5.517241" height="5.517241" fill="#FFFFFF" fill-opacity="1.000000"/>
	<rect id="Rectangle" x="66.206909" y="132.413818" width="5.517241" height="5.517241" fill="#FFFFFF" fill-opacity="1.000000"/>
	<rect id="Rectangle" x="71.724121" y="132.413818" width="5.517241" height="5.517241" fill="#FFFFFF" fill-opacity="1.000000"/>
	<rect id="Rectangle" x="77.241394" y="132.413818" width="5.517241" height="5.517241" fill="#FFFFFF" fill-opacity="1.000000"/>
	<rect id="Rectangle" x="88.275879" y="132.413818" width="5.517241" height="5.517241" fill="#FFFFFF" fill-opacity="1.000000"/>
	<rect id="Rectangle" x="104.827576" y="132.413818" width="5.517241" height="5.517241" fill="#FFFFFF" fill-opacity="1.000000"/>
	<rect id="Rectangle" x="110.344849" y="132.413818" width="5.517241" height="5.517241" fill="#FFFFFF" fill-opacity="1.000000"/>
	<rect id="Rectangle" x="115.862061" y="132.413818" width="5.517241" height="5.517241" fill="#FFFFFF" fill-opacity="1.000000"/>
	<rect id="Rectangle" x="121.379272" y="132.413818" width="5.517241" height="5.517241" fill="#FFFFFF" fill-opacity="1.000000"/>
	<rect id="Rectangle" x="126.896545" y="132.413818" width="5.517241" height="5.517241" fill="#FFFFFF" fill-opacity="1.000000"/>
	<rect id="Rectangle" x="132.413818" y="132.413818" width="5.517241" height="5.517241" fill="#FFFFFF" fill-opacity="1.000000"/>
	<rect id="Rectangle" x="137.931030" y="132.413818" width="5.517241" height="5.517241" fill="#FFFFFF" fill-opacity="1.000000"/>
	<rect id="Rectangle" x="49.655151" y="137.931030" width="5.517241" height="5.517241" fill="#FFFFFF" fill-opacity="1.000000"/>
	<rect id="Rectangle" x="55.172424" y="137.931030" width="5.517241" height="5.517241" fill="#FFFFFF" fill-opacity="1.000000"/>
	<rect id="Rectangle" x="60.689636" y="137.931030" width="5.517241" height="5.517241" fill="#FFFFFF" fill-opacity="1.000000"/>
	<rect id="Rectangle" x="71.724121" y="137.931030" width="5.517241" height="5.517241" fill="#FFFFFF" fill-opacity="1.000000"/>
	<rect id="Rectangle" x="77.241394" y="137.931030" width="5.517241" height="5.517241" fill="#FFFFFF" fill-opacity="1.000000"/>
	<rect id="Rectangle" x="93.793091" y="137.931030" width="5.517241" height="5.517241" fill="#FFFFFF" fill-opacity="1.000000"/>
	<rect id="Rectangle" x="99.310364" y="137.931030" width="5.517241" height="5.517241" fill="#FFFFFF" fill-opacity="1.000000"/>
	<rect id="Rectangle" x="115.862061" y="137.931030" width="5.517241" height="5.517241" fill="#FFFFFF" fill-opacity="1.000000"/>
	<rect id="Rectangle" x="126.896545" y="137.931030" width="5.517241" height="5.517241" fill="#FFFFFF" fill-opacity="1.000000"/>
	<rect id="Rectangle" x="137.931030" y="137.931030" width="5.517241" height="5.517241" fill="#FFFFFF" fill-opacity="1.000000"/>
	<rect id="Rectangle" x="143.448242" y="137.931030" width="5.517241" height="5.517241" fill="#FFFFFF" fill-opacity="1.000000"/>
	<rect id="Rectangle" x="148.965515" y="137.931030" width="5.517241" height="5.517241" fill="#FFFFFF" fill-opacity="1.000000"/>
	<rect id="Rectangle" x="49.655151" y="143.448273" width="5.517241" height="5.517241" fill="#FFFFFF" fill-opacity="1.000000"/>
	<rect id="Rectangle" x="55.172424" y="143.448273" width="5.517241" height="5.517241" fill="#FFFFFF" fill-opacity="1.000000"/>
	<rect id="Rectangle" x="82.758606" y="143.448273" width="5.517241" height="5.517241" fill="#FFFFFF" fill-opacity="1.000000"/>
	<rect id="Rectangle" x="88.275879" y="143.448273" width="5.517241" height="5.517241" fill="#FFFFFF" fill-opacity="1.000000"/>
	<rect id="Rectangle" x="93.793091" y="143.448273" width="5.517241" height="5.517241" fill="#FFFFFF" fill-opacity="1.000000"/>
	<rect id="Rectangle" x="104.827576" y="143.448273" width="5.517241" height="5.517241" fill="#FFFFFF" fill-opacity="1.000000"/>
	<rect id="Rectangle" x="115.862061" y="143.448273" width="5.517241" height="5.517241" fill="#FFFFFF" fill-opacity="1.000000"/>
	<rect id="Rectangle" x="121.379272" y="143.448273" width="5.517241" height="5.517241" fill="#FFFFFF" fill-opacity="1.000000"/>
	<rect id="Rectangle" x="126.896545" y="143.448273" width="5.517241" height="5.517241" fill="#FFFFFF" fill-opacity="1.000000"/>
	<rect id="Rectangle" x="132.413818" y="143.448273" width="5.517241" height="5.517241" fill="#FFFFFF" fill-opacity="1.000000"/>
	<rect id="Rectangle" x="137.931030" y="143.448273" width="5.517241" height="5.517241" fill="#FFFFFF" fill-opacity="1.000000"/>
	<rect id="Rectangle" x="143.448242" y="143.448273" width="5.517241" height="5.517241" fill="#FFFFFF" fill-opacity="1.000000"/>
	<rect id="Rectangle" x="148.965515" y="143.448273" width="5.517241" height="5.517241" fill="#FFFFFF" fill-opacity="1.000000"/>
	<rect id="Rectangle" x="66.206909" y="148.965515" width="5.517241" height="5.517241" fill="#FFFFFF" fill-opacity="1.000000"/>
	<rect id="Rectangle" x="82.758606" y="148.965515" width="5.517241" height="5.517241" fill="#FFFFFF" fill-opacity="1.000000"/>
	<rect id="Rectangle" x="104.827576" y="148.965515" width="5.517241" height="5.517241" fill="#FFFFFF" fill-opacity="1.000000"/>
	<rect id="Rectangle" x="115.862061" y="148.965515" width="5.517241" height="5.517241" fill="#FFFFFF" fill-opacity="1.000000"/>
	<rect id="Rectangle" x="126.896545" y="148.965515" width="5.517241" height="5.517241" fill="#FFFFFF" fill-opacity="1.000000"/>
	<rect id="Rectangle" x="137.931030" y="148.965515" width="5.517241" height="5.517241" fill="#FFFFFF" fill-opacity="1.000000"/>
	<rect id="Rectangle" x="143.448242" y="148.965515" width="5.517241" height="5.517241" fill="#FFFFFF" fill-opacity="1.000000"/>
	<rect id="Rectangle" x="154.482788" y="148.965515" width="5.517241" height="5.517241" fill="#FFFFFF" fill-opacity="1.000000"/>
	<rect id="Rectangle" x="44.137939" y="154.482758" width="5.517241" height="5.517241" fill="#FFFFFF" fill-opacity="1.000000"/>
	<rect id="Rectangle" x="49.655151" y="154.482758" width="5.517241" height="5.517241" fill="#FFFFFF" fill-opacity="1.000000"/>
	<rect id="Rectangle" x="60.689636" y="154.482758" width="5.517241" height="5.517241" fill="#FFFFFF" fill-opacity="1.000000"/>
	<rect id="Rectangle" x="71.724121" y="154.482758" width="5.517241" height="5.517241" fill="#FFFFFF" fill-opacity="1.000000"/>
	<rect id="Rectangle" x="77.241394" y="154.482758" width="5.517241" height="5.517241" fill="#FFFFFF" fill-opacity="1.000000"/>
	<rect id="Rectangle" x="93.793091" y="154.482758" width="5.517241" height="5.517241" fill="#FFFFFF" fill-opacity="1.000000"/>
	<rect id="Rectangle" x="99.310364" y="154.482758" width="5.517241" height="5.517241" fill="#FFFFFF" fill-opacity="1.000000"/>
	<rect id="Rectangle" x="104.827576" y="154.482758" width="5.517241" height="5.517241" fill="#FFFFFF" fill-opacity="1.000000"/>
	<rect id="Rectangle" x="115.862061" y="154.482758" width="5.517241" height="5.517241" fill="#FFFFFF" fill-opacity="1.000000"/>
	<rect id="Rectangle" x="121.379272" y="154.482758" width="5.517241" height="5.517241" fill="#FFFFFF" fill-opacity="1.000000"/>
	<rect id="Rectangle" x="126.896545" y="154.482758" width="5.517241" height="5.517241" fill="#FFFFFF" fill-opacity="1.000000"/>
	<rect id="Rectangle" x="132.413818" y="154.482758" width="5.517241" height="5.517241" fill="#FFFFFF" fill-opacity="1.000000"/>
	<rect id="Rectangle" x="137.931030" y="154.482758" width="5.517241" height="5.517241" fill="#FFFFFF" fill-opacity="1.000000"/>
	<rect id="Rectangle" x="143.448242" y="154.482758" width="5.517241" height="5.517241" fill="#FFFFFF" fill-opacity="1.000000"/>
	<path id="Shape" d="M5.79309 0L38.6207 0L38.6207 38.6207L0 38.6207L0 0L5.79309 0ZM5.79309 32.8276L32.8276 32.8276L32.8276 5.79309L5.79309 5.79309L5.79309 32.8276Z" clip-rule="evenodd" fill="#FFFFFF" fill-opacity="1.000000" fill-rule="evenodd"/>
	<path id="Shape" d="M127.172 0L160 0L160 38.6207L121.379 38.6207L121.379 0L127.172 0ZM127.172 32.8276L154.207 32.8276L154.207 5.79309L127.172 5.79309L127.172 32.8276Z" clip-rule="evenodd" fill="#FFFFFF" fill-opacity="1.000000" fill-rule="evenodd"/>
	<path id="Shape" d="M5.79309 121.379L38.6207 121.379L38.6207 160L0 160L0 121.379L5.79309 121.379ZM5.79309 154.207L32.8276 154.207L32.8276 127.172L5.79309 127.172L5.79309 154.207Z" clip-rule="evenodd" fill="#FFFFFF" fill-opacity="1.000000" fill-rule="evenodd"/>
	<rect id="Rectangle" x="11.034485" y="11.034485" width="16.551723" height="16.551723" fill="#FFFFFF" fill-opacity="1.000000"/>
	<rect id="Rectangle" x="132.413818" y="11.034485" width="16.551723" height="16.551723" fill="#FFFFFF" fill-opacity="1.000000"/>
	<rect id="Rectangle" x="11.034485" y="132.413818" width="16.551723" height="16.551723" fill="#FFFFFF" fill-opacity="1.000000"/>
</svg>
